<mxfile host="app.diagrams.net" modified="2022-01-05T05:49:02.713Z" agent="5.0 (X11; Linux x86_64) AppleWebKit/537.36 (KHTML, like Gecko) Chrome/96.0.4664.110 Safari/537.36" etag="3weSlKUUAmwrLaSkvD9M" version="16.2.1" type="github">
  <diagram id="C5RBs43oDa-KdzZeNtuy" name="Page-1">
    <mxGraphModel dx="1422" dy="748" grid="1" gridSize="10" guides="1" tooltips="1" connect="1" arrows="1" fold="1" page="1" pageScale="1" pageWidth="827" pageHeight="1169" math="0" shadow="0">
      <root>
        <mxCell id="WIyWlLk6GJQsqaUBKTNV-0" />
        <mxCell id="WIyWlLk6GJQsqaUBKTNV-1" parent="WIyWlLk6GJQsqaUBKTNV-0" />
        <mxCell id="WIyWlLk6GJQsqaUBKTNV-2" value="" style="rounded=0;html=1;jettySize=auto;orthogonalLoop=1;fontSize=11;endArrow=block;endFill=0;endSize=8;strokeWidth=1;shadow=0;labelBackgroundColor=none;edgeStyle=orthogonalEdgeStyle;" parent="WIyWlLk6GJQsqaUBKTNV-1" source="WIyWlLk6GJQsqaUBKTNV-3" edge="1">
          <mxGeometry relative="1" as="geometry">
            <mxPoint x="220" y="170" as="targetPoint" />
          </mxGeometry>
        </mxCell>
        <mxCell id="WIyWlLk6GJQsqaUBKTNV-3" value="开始" style="rounded=1;whiteSpace=wrap;html=1;fontSize=12;glass=0;strokeWidth=1;shadow=0;" parent="WIyWlLk6GJQsqaUBKTNV-1" vertex="1">
          <mxGeometry x="160" y="100" width="120" height="40" as="geometry" />
        </mxCell>
        <mxCell id="M91LKLM4lBY4z5SCcWYf-3" style="edgeStyle=orthogonalEdgeStyle;rounded=0;orthogonalLoop=1;jettySize=auto;html=1;exitX=0.5;exitY=1;exitDx=0;exitDy=0;entryX=0.5;entryY=0;entryDx=0;entryDy=0;" parent="WIyWlLk6GJQsqaUBKTNV-1" source="M91LKLM4lBY4z5SCcWYf-1" target="M91LKLM4lBY4z5SCcWYf-2" edge="1">
          <mxGeometry relative="1" as="geometry" />
        </mxCell>
        <mxCell id="M91LKLM4lBY4z5SCcWYf-1" value="触发issue钩子" style="rounded=0;whiteSpace=wrap;html=1;" parent="WIyWlLk6GJQsqaUBKTNV-1" vertex="1">
          <mxGeometry x="160" y="170" width="120" height="40" as="geometry" />
        </mxCell>
        <mxCell id="M91LKLM4lBY4z5SCcWYf-7" style="edgeStyle=orthogonalEdgeStyle;rounded=0;orthogonalLoop=1;jettySize=auto;html=1;exitX=0.5;exitY=1;exitDx=0;exitDy=0;entryX=0.5;entryY=0;entryDx=0;entryDy=0;" parent="WIyWlLk6GJQsqaUBKTNV-1" source="M91LKLM4lBY4z5SCcWYf-2" target="M91LKLM4lBY4z5SCcWYf-4" edge="1">
          <mxGeometry relative="1" as="geometry" />
        </mxCell>
        <mxCell id="M91LKLM4lBY4z5SCcWYf-2" value="获取issue标签" style="rounded=0;whiteSpace=wrap;html=1;" parent="WIyWlLk6GJQsqaUBKTNV-1" vertex="1">
          <mxGeometry x="160" y="240" width="120" height="40" as="geometry" />
        </mxCell>
        <mxCell id="M91LKLM4lBY4z5SCcWYf-8" style="edgeStyle=orthogonalEdgeStyle;rounded=0;orthogonalLoop=1;jettySize=auto;html=1;exitX=0.5;exitY=1;exitDx=0;exitDy=0;entryX=0.5;entryY=0;entryDx=0;entryDy=0;" parent="WIyWlLk6GJQsqaUBKTNV-1" source="M91LKLM4lBY4z5SCcWYf-4" target="M91LKLM4lBY4z5SCcWYf-6" edge="1">
          <mxGeometry relative="1" as="geometry" />
        </mxCell>
        <mxCell id="8oBSU4zBzEwURioC2mM_-10" style="edgeStyle=orthogonalEdgeStyle;rounded=0;orthogonalLoop=1;jettySize=auto;html=1;exitX=1;exitY=0.5;exitDx=0;exitDy=0;entryX=0.5;entryY=0;entryDx=0;entryDy=0;" edge="1" parent="WIyWlLk6GJQsqaUBKTNV-1" source="M91LKLM4lBY4z5SCcWYf-4" target="8oBSU4zBzEwURioC2mM_-9">
          <mxGeometry relative="1" as="geometry" />
        </mxCell>
        <mxCell id="M91LKLM4lBY4z5SCcWYf-4" value="sig-create?" style="rhombus;whiteSpace=wrap;html=1;" parent="WIyWlLk6GJQsqaUBKTNV-1" vertex="1">
          <mxGeometry x="180" y="310" width="80" height="80" as="geometry" />
        </mxCell>
        <mxCell id="M91LKLM4lBY4z5SCcWYf-13" style="edgeStyle=orthogonalEdgeStyle;rounded=0;orthogonalLoop=1;jettySize=auto;html=1;exitX=0.5;exitY=1;exitDx=0;exitDy=0;entryX=0.5;entryY=0;entryDx=0;entryDy=0;" parent="WIyWlLk6GJQsqaUBKTNV-1" source="M91LKLM4lBY4z5SCcWYf-6" target="M91LKLM4lBY4z5SCcWYf-10" edge="1">
          <mxGeometry relative="1" as="geometry" />
        </mxCell>
        <mxCell id="M91LKLM4lBY4z5SCcWYf-16" style="edgeStyle=orthogonalEdgeStyle;rounded=0;orthogonalLoop=1;jettySize=auto;html=1;exitX=1;exitY=0.5;exitDx=0;exitDy=0;" parent="WIyWlLk6GJQsqaUBKTNV-1" source="M91LKLM4lBY4z5SCcWYf-6" target="M91LKLM4lBY4z5SCcWYf-15" edge="1">
          <mxGeometry relative="1" as="geometry" />
        </mxCell>
        <mxCell id="M91LKLM4lBY4z5SCcWYf-6" value="issue body符合规范？" style="rhombus;whiteSpace=wrap;html=1;" parent="WIyWlLk6GJQsqaUBKTNV-1" vertex="1">
          <mxGeometry x="180" y="410" width="80" height="80" as="geometry" />
        </mxCell>
        <mxCell id="M91LKLM4lBY4z5SCcWYf-14" style="edgeStyle=orthogonalEdgeStyle;rounded=0;orthogonalLoop=1;jettySize=auto;html=1;exitX=0.5;exitY=1;exitDx=0;exitDy=0;entryX=0.5;entryY=0;entryDx=0;entryDy=0;" parent="WIyWlLk6GJQsqaUBKTNV-1" source="M91LKLM4lBY4z5SCcWYf-10" target="M91LKLM4lBY4z5SCcWYf-12" edge="1">
          <mxGeometry relative="1" as="geometry" />
        </mxCell>
        <mxCell id="M91LKLM4lBY4z5SCcWYf-10" value="添加issue评论并@相关技术委员会负责人" style="rounded=0;whiteSpace=wrap;html=1;" parent="WIyWlLk6GJQsqaUBKTNV-1" vertex="1">
          <mxGeometry x="160" y="510" width="120" height="50" as="geometry" />
        </mxCell>
        <mxCell id="8oBSU4zBzEwURioC2mM_-5" style="edgeStyle=orthogonalEdgeStyle;rounded=0;orthogonalLoop=1;jettySize=auto;html=1;exitX=0.5;exitY=1;exitDx=0;exitDy=0;entryX=0.5;entryY=0;entryDx=0;entryDy=0;" edge="1" parent="WIyWlLk6GJQsqaUBKTNV-1" source="M91LKLM4lBY4z5SCcWYf-12" target="8oBSU4zBzEwURioC2mM_-1">
          <mxGeometry relative="1" as="geometry" />
        </mxCell>
        <mxCell id="M91LKLM4lBY4z5SCcWYf-12" value="审核通过？" style="rhombus;whiteSpace=wrap;html=1;" parent="WIyWlLk6GJQsqaUBKTNV-1" vertex="1">
          <mxGeometry x="180" y="600" width="80" height="80" as="geometry" />
        </mxCell>
        <mxCell id="8oBSU4zBzEwURioC2mM_-6" style="edgeStyle=orthogonalEdgeStyle;rounded=0;orthogonalLoop=1;jettySize=auto;html=1;exitX=0.5;exitY=1;exitDx=0;exitDy=0;entryX=0.5;entryY=0;entryDx=0;entryDy=0;" edge="1" parent="WIyWlLk6GJQsqaUBKTNV-1" source="M91LKLM4lBY4z5SCcWYf-15" target="8oBSU4zBzEwURioC2mM_-0">
          <mxGeometry relative="1" as="geometry" />
        </mxCell>
        <mxCell id="M91LKLM4lBY4z5SCcWYf-15" value="添加issue评论并@issue创建人body内容不符合规范" style="rounded=0;whiteSpace=wrap;html=1;" parent="WIyWlLk6GJQsqaUBKTNV-1" vertex="1">
          <mxGeometry x="320" y="510" width="120" height="50" as="geometry" />
        </mxCell>
        <mxCell id="8oBSU4zBzEwURioC2mM_-0" value="关闭issue" style="rounded=0;whiteSpace=wrap;html=1;" vertex="1" parent="WIyWlLk6GJQsqaUBKTNV-1">
          <mxGeometry x="320" y="790" width="120" height="50" as="geometry" />
        </mxCell>
        <mxCell id="8oBSU4zBzEwURioC2mM_-4" style="edgeStyle=orthogonalEdgeStyle;rounded=0;orthogonalLoop=1;jettySize=auto;html=1;exitX=0.5;exitY=1;exitDx=0;exitDy=0;entryX=0.5;entryY=0;entryDx=0;entryDy=0;" edge="1" parent="WIyWlLk6GJQsqaUBKTNV-1" source="8oBSU4zBzEwURioC2mM_-1" target="8oBSU4zBzEwURioC2mM_-2">
          <mxGeometry relative="1" as="geometry" />
        </mxCell>
        <mxCell id="8oBSU4zBzEwURioC2mM_-1" value="调用创建sig组接口" style="rounded=0;whiteSpace=wrap;html=1;" vertex="1" parent="WIyWlLk6GJQsqaUBKTNV-1">
          <mxGeometry x="160" y="700" width="120" height="50" as="geometry" />
        </mxCell>
        <mxCell id="8oBSU4zBzEwURioC2mM_-3" style="edgeStyle=orthogonalEdgeStyle;rounded=0;orthogonalLoop=1;jettySize=auto;html=1;exitX=1;exitY=0.5;exitDx=0;exitDy=0;" edge="1" parent="WIyWlLk6GJQsqaUBKTNV-1" source="8oBSU4zBzEwURioC2mM_-2" target="8oBSU4zBzEwURioC2mM_-0">
          <mxGeometry relative="1" as="geometry" />
        </mxCell>
        <mxCell id="8oBSU4zBzEwURioC2mM_-2" value="添加issue评论并@issue创建人" style="rounded=0;whiteSpace=wrap;html=1;" vertex="1" parent="WIyWlLk6GJQsqaUBKTNV-1">
          <mxGeometry x="160" y="790" width="120" height="50" as="geometry" />
        </mxCell>
        <mxCell id="8oBSU4zBzEwURioC2mM_-11" style="edgeStyle=orthogonalEdgeStyle;rounded=0;orthogonalLoop=1;jettySize=auto;html=1;exitX=0.5;exitY=1;exitDx=0;exitDy=0;entryX=1;entryY=0.5;entryDx=0;entryDy=0;" edge="1" parent="WIyWlLk6GJQsqaUBKTNV-1" source="8oBSU4zBzEwURioC2mM_-9" target="8oBSU4zBzEwURioC2mM_-0">
          <mxGeometry relative="1" as="geometry" />
        </mxCell>
        <mxCell id="8oBSU4zBzEwURioC2mM_-9" value="其他issue相关CI流程" style="rounded=0;whiteSpace=wrap;html=1;" vertex="1" parent="WIyWlLk6GJQsqaUBKTNV-1">
          <mxGeometry x="480" y="510" width="120" height="50" as="geometry" />
        </mxCell>
        <mxCell id="8oBSU4zBzEwURioC2mM_-12" value="结束" style="rounded=1;whiteSpace=wrap;html=1;fontSize=12;glass=0;strokeWidth=1;shadow=0;" vertex="1" parent="WIyWlLk6GJQsqaUBKTNV-1">
          <mxGeometry x="320" y="870" width="120" height="40" as="geometry" />
        </mxCell>
        <mxCell id="8oBSU4zBzEwURioC2mM_-13" value="Y" style="text;html=1;align=center;verticalAlign=middle;resizable=0;points=[];autosize=1;strokeColor=none;fillColor=none;" vertex="1" parent="WIyWlLk6GJQsqaUBKTNV-1">
          <mxGeometry x="230" y="390" width="20" height="20" as="geometry" />
        </mxCell>
        <mxCell id="8oBSU4zBzEwURioC2mM_-16" value="Y" style="text;html=1;align=center;verticalAlign=middle;resizable=0;points=[];autosize=1;strokeColor=none;fillColor=none;" vertex="1" parent="WIyWlLk6GJQsqaUBKTNV-1">
          <mxGeometry x="230" y="490" width="20" height="20" as="geometry" />
        </mxCell>
        <mxCell id="8oBSU4zBzEwURioC2mM_-18" value="Y" style="text;html=1;align=center;verticalAlign=middle;resizable=0;points=[];autosize=1;strokeColor=none;fillColor=none;" vertex="1" parent="WIyWlLk6GJQsqaUBKTNV-1">
          <mxGeometry x="230" y="680" width="20" height="20" as="geometry" />
        </mxCell>
      </root>
    </mxGraphModel>
  </diagram>
</mxfile>
